Coordinates
version=1
nRows=26
nColumns=22
inDegrees=yes

Units are S.I. units (second, meters, Newtons, ...)
If the header above contains a line with 'inDegrees', this indicates whether rotational values are in degrees (yes) or radians (no).

endheader
time	pelvis_tilt	pelvis_list	pelvis_rotation	pelvis_tx	pelvis_ty	pelvis_tz	hip_flexion_r	hip_adduction_r	hip_rotation_r	knee_angle_r	ankle_angle_r	subtalar_angle_r	hip_flexion_l	hip_adduction_l	hip_rotation_l	knee_angle_l	ankle_angle_l	subtalar_angle_l	lumbar_extension	lumbar_bending	lumbar_rotation
      3.84000000	     -2.50935807	      8.07347937	   -101.00675401	      0.21632610	      0.85639201	      0.25355988	     -9.12319807	     -3.47048838	     18.61651009	    -24.19880381	      1.53572323	      9.17183639	     33.40501844	     -9.70803898	     -4.83617763	    -35.17717194	      9.54304750	      4.20601118	      2.95604503	      3.34293084	     17.89607792
      3.85000000	     -2.59412288	      7.96971077	   -100.96372036	      0.21789772	      0.85838982	      0.25978689	     -8.29509352	     -3.14346016	     18.50560930	    -26.24145170	      0.00945315	      9.26308765	     32.60077767	     -9.54555263	     -4.87660669	    -34.77380571	      9.83818936	      4.06645692	      2.78346243	      3.27518074	     17.52087055
      3.86000000	     -2.69758756	      7.83513465	   -100.91783008	      0.21946157	      0.86036323	      0.26579516	     -7.41375967	     -2.78929627	     18.35914065	    -28.38108551	     -1.44016833	      9.26323967	     31.76735248	     -9.39128916	     -4.90049459	    -34.35134760	     10.11905666	      3.85415745	      2.55781054	      3.23012031	     17.15781628
      3.87000000	     -2.82594980	      7.65315062	   -100.87824456	      0.22101998	      0.86234523	      0.27163141	     -6.52208293	     -2.42117380	     18.17556732	    -30.56332528	     -2.81989615	      9.16486995	     30.86604432	     -9.25949407	     -4.94552519	    -33.88242811	     10.40961457	      3.66696325	      2.26362642	      3.21859106	     16.81029605
      3.88000000	     -2.95665565	      7.45027101	   -100.86178565	      0.22254854	      0.86427291	      0.27727978	     -5.57418876	     -2.06756204	     17.92375963	    -32.80538651	     -4.03434633	      8.94274428	     29.92942452	     -9.14443030	     -5.04553762	    -33.37444499	     10.69070406	      3.44713999	      1.93803008	      3.21951253	     16.48560533
      3.89000000	     -3.07282875	      7.22481637	   -100.86109628	      0.22411263	      0.86613457	      0.28272079	     -4.57825946	     -1.75623176	     17.61272866	    -35.08273920	     -5.04787527	      8.66898038	     28.96853727	     -9.01764391	     -5.18066141	    -32.83991658	     10.96708741	      3.24653223	      1.57704836	      3.21938370	     16.18818913
      3.90000000	     -3.15148242	      6.99118464	   -100.87478078	      0.22574053	      0.86790553	      0.28795830	     -3.51942125	     -1.52168508	     17.22051777	    -37.37380471	     -5.78154346	      8.38123355	     28.00032391	     -8.85438400	     -5.35721509	    -32.27208329	     11.22347120	      3.06623983	      1.20436676	      3.19888554	     15.91081968
      3.91000000	     -3.18808459	      6.73458824	   -100.89070153	      0.22743648	      0.86959691	      0.29300709	     -2.42289952	     -1.38396947	     16.71342544	    -39.64828648	     -6.15762477	      7.93925877	     27.02161756	     -8.64459782	     -5.57130168	    -31.68947020	     11.46287131	      2.82299070	      0.80754152	      3.14481979	     15.62748109
      3.92000000	     -3.15145247	      6.49592289	   -100.90360507	      0.22924515	      0.87115758	      0.29785346	     -1.24082055	     -1.38485823	     16.08460513	    -41.88089422	     -6.10556563	      7.67027791	     26.06964135	     -8.34986035	     -5.78852482	    -31.05833350	     11.62702892	      2.68610365	      0.44255509	      3.03470030	     15.35629635
      3.93000000	     -3.06140258	      6.21548299	   -100.89640877	      0.23117979	      0.87267497	      0.30254326	     -0.06964714	     -1.52055540	     15.32732621	    -44.00390961	     -5.66301959	      7.12247810	     25.10066343	     -7.97922366	     -6.02558590	    -30.42555962	     11.79289404	      2.42403889	      0.03882552	      2.87790984	     15.03712796
      3.94000000	     -2.92715707	      5.94102250	   -100.84267993	      0.23327262	      0.87409108	      0.30706060	      1.12417518	     -1.77802813	     14.43816286	    -45.97951405	     -4.80080741	      6.59725709	     24.17017401	     -7.53366049	     -6.20698133	    -29.78167814	     11.90419358	      2.21932783	     -0.34872823	      2.69302657	     14.66932049
      3.95000000	     -2.77282840	      5.65520540	   -100.73422584	      0.23549814	      0.87545984	      0.31143190	      2.29341072	     -2.12768527	     13.43892677	    -47.75586416	     -3.62279342	      5.94399639	     23.25927303	     -7.03803856	     -6.32604584	    -29.13660685	     11.97025531	      2.00692264	     -0.74182071	      2.50051443	     14.23773373
      3.96000000	     -2.62439481	      5.36368164	   -100.56200287	      0.23783134	      0.87679937	      0.31566349	      3.41331151	     -2.52674586	     12.35694481	    -49.28583542	     -2.23711076	      5.14899143	     22.37468335	     -6.52129109	     -6.35910488	    -28.49899366	     11.99879535	      1.79131472	     -1.13982898	      2.32781237	     13.73927592
      3.97000000	     -2.50515215	      5.07137424	   -100.32679419	      0.24023281	      0.87811774	      0.31976684	      4.46759581	     -2.93280324	     11.21951060	    -50.54088493	     -0.74269508	      4.26055766	     21.51894985	     -6.01683976	     -6.30725064	    -27.87965770	     12.00620485	      1.58550341	     -1.54052958	      2.20059511	     13.16973218
      3.98000000	     -2.43676196	      4.78395264	   -100.02937445	      0.24265162	      0.87942645	      0.32373842	      5.44281621	     -3.30226447	     10.04854144	    -51.49839375	      0.76456107	      3.33114398	     20.69651664	     -5.55629515	     -6.16713728	    -27.28613152	     12.00206043	      1.39456615	     -1.94159624	      2.13789398	     12.54637485
      3.99000000	     -2.42886297	      4.50876832	    -99.68256834	      0.24503726	      0.88072834	      0.32758342	      6.33545724	     -3.60726985	      8.86459088	    -52.14409347	      2.22237507	      2.42355249	     19.90955059	     -5.16416300	     -5.96595703	    -26.72009704	     11.99625122	      1.22463830	     -2.33516009	      2.14906309	     11.88530466
      4.00000000	     -2.48772405	      4.25157395	    -99.30392254	      0.24734438	      0.88201556	      0.33126613	      7.15706151	     -3.81951554	      7.70260743	    -52.49138643	      3.59015293	      1.61785910	     19.16628318	     -4.85697793	     -5.70969615	    -26.19175237	     11.99439250	      1.08766631	     -2.71998116	      2.23899698	     11.20589397
      4.01000000	     -2.60707885	      4.03057253	    -98.90811933	      0.24953515	      0.88329287	      0.33480619	      7.92023893	     -3.92541407	      6.59518064	    -52.53006395	      4.84607802	      1.00905686	     18.45951046	     -4.63346507	     -5.39920218	    -25.65319085	     11.96749353	      0.99549162	     -3.06869739	      2.40214787	     10.51609953
      4.02000000	     -2.78625073	      3.83133501	    -98.52053405	      0.25155661	      0.88454174	      0.33819707	      8.62292637	     -3.93257702	      5.52260881	    -52.28234599	      6.01069064	      0.44045315	     17.80336456	     -4.51468930	     -5.13113049	    -25.17369016	     11.97155343	      0.91607227	     -3.39992852	      2.62703205	      9.88198257
      4.03000000	     -3.00335291	      3.67655490	    -98.14200019	      0.25340917	      0.88574455	      0.34141713	      9.29698946	     -3.83510205	      4.54801081	    -51.76627095	      7.07634134	      0.12022795	     17.19764674	     -4.46735241	     -4.85102650	    -24.69095745	     11.96703151	      0.88415239	     -3.68331001	      2.89426885	      9.26635396
      4.04000000	     -3.23588577	      3.56030652	    -97.79511505	      0.25505542	      0.88687518	      0.34449819	      9.94864277	     -3.66685451	      3.66390217	    -51.00619462	      8.06850818	     -0.00650380	     16.64831294	     -4.47930497	     -4.62765932	    -24.23869499	     11.97603042	      0.87748436	     -3.92039118	      3.17244903	      8.71398817
      4.05000000	     -3.50915452	      3.46896111	    -97.49249323	      0.25644072	      0.88799765	      0.34741419	     10.55377450	     -3.36619240	      2.95178301	    -49.99726696	      8.96287924	     -0.14127328	     16.10687417	     -4.57163405	     -4.41827023	    -23.75272279	     11.95888418	      0.88121861	     -4.13571427	      3.48481790	      8.23338298
      4.06000000	     -3.76903908	      3.41152278	    -97.23297784	      0.25758944	      0.88902546	      0.35020413	     11.14165758	     -3.01031491	      2.39127288	    -48.78687645	      9.79368325	     -0.13439241	     15.61416226	     -4.69067548	     -4.28393718	    -23.28854539	     11.95242204	      0.90265819	     -4.30582483	      3.76930044	      7.82658879
      4.07000000	     -4.02861417	      3.37636377	    -97.02176590	      0.25847216	      0.88999026	      0.35287093	     11.69472424	     -2.57714846	      2.02061493	    -47.38597817	     10.53754977	     -0.03690442	     15.14179469	     -4.84597903	     -4.19735273	    -22.81941553	     11.93795914	      0.94030591	     -4.44780661	      4.03668198	      7.50640335
      4.08000000	     -4.27789143	      3.35644621	    -96.85586066	      0.25910189	      0.89089892	      0.35543639	     12.19598386	     -2.08031953	      1.86823130	    -45.80163001	     11.17825315	      0.16052539	     14.68209658	     -5.02188898	     -4.15173861	    -22.34578046	     11.92677726	      1.00328940	     -4.56641842	      4.27578405	      7.25820893
      4.09000000	     -4.50828173	      3.35073359	    -96.73462827	      0.25950429	      0.89173813	      0.35791161	     12.64490533	     -1.54244527	      1.93803264	    -44.06279978	     11.73738013	      0.45644456	     14.23897089	     -5.20580901	     -4.15579549	    -21.87651913	     11.91444164	      1.08589806	     -4.66172081	      4.47888866	      7.08180923
